<?xml version="1.0" encoding="utf-8"?>
<!-- Generator: Adobe Illustrator 26.1.0, SVG Export Plug-In . SVG Version: 6.00 Build 0)  -->
<svg version="1.1" id="Layer_1" xmlns="http://www.w3.org/2000/svg" xmlns:xlink="http://www.w3.org/1999/xlink" x="0px" y="0px"
	 viewBox="0 0 720.8 102" style="enable-background:new 0 0 720.8 102;" xml:space="preserve">
<style type="text/css">
	.st0{fill:#008866;}
	.st1{fill:#1D1D1B;}
	.st2{fill:#1D1E1C;}
	.st3{fill:#1A1414;}
	.st4{fill:#FFD500;}
	.st5{fill:#005BBB;}
</style>
<g>
	<path class="st0" d="M14.3,43c-0.1-0.1-0.1-0.2-0.1-0.2C14.2,42.9,14.2,42.9,14.3,43"/>
	<g>
		<rect x="356.9" y="-4.6" class="st1" width="3.7" height="109.7"/>
		<g>
			<g>
				<path class="st1" d="M390.7,46V28h-6.5v-4.1h17.6V28h-6.4v18H390.7z"/>
				<path class="st1" d="M420,46v-9.3h-10.4V46h-4.7V23.9h4.7v8.7H420v-8.7h4.7V46H420z"/>
				<path class="st1" d="M429.1,46V23.9h15.6V28h-10.9v4.6h10.7v4.1h-10.7v5h10.9V46H429.1z"/>
				<path class="st1" d="M473.8,46l-3.9-15.2L466.1,46h-5l-6.3-22.1h5.3l3.9,16l4.2-16h3.7l4.2,16l3.9-16h5.3L478.8,46H473.8z"/>
				<path class="st1" d="M485.6,34.9c0-6.7,4.9-11.4,11.6-11.4s11.5,4.8,11.5,11.4c0,6.7-4.9,11.4-11.5,11.4
					C490.5,46.4,485.6,41.6,485.6,34.9z M503.8,34.9c0-4.1-2.6-7.3-6.7-7.3s-6.7,3.1-6.7,7.3c0,4.1,2.6,7.3,6.7,7.3
					C501.2,42.2,503.8,39,503.8,34.9z"/>
				<path class="st1" d="M524.5,46l-4.3-7.8h-3.4V46H512V23.9h10.3c4.6,0,7.5,3,7.5,7.1c0,3.9-2.5,6-4.9,6.6l5,8.4H524.5z M524.9,31
					c0-1.8-1.4-2.9-3.3-2.9h-5v6h5C523.5,34,524.9,32.8,524.9,31z"/>
				<path class="st1" d="M533.1,46V23.9h4.7v18h9.3V46H533.1z"/>
				<path class="st1" d="M550.3,46V23.9h8.7c6.9,0,11.7,4.4,11.7,11c0,6.7-4.8,11.1-11.7,11.1H550.3z M566,34.9
					c0-3.9-2.4-6.9-6.9-6.9h-4v13.8h4C563.4,41.8,566,38.7,566,34.9z"/>
				<path class="st1" d="M581.6,34.9c0-6.8,5.1-11.4,11.8-11.4c4.8,0,7.7,2.6,9.2,5.4l-4,2c-0.9-1.8-2.9-3.2-5.2-3.2
					c-4,0-7,3.1-7,7.3s2.9,7.3,7,7.3c2.3,0,4.2-1.4,5.2-3.2l4,2c-1.6,2.7-4.4,5.4-9.2,5.4C586.7,46.4,581.6,41.7,581.6,34.9z"/>
				<path class="st1" d="M605.4,37.1V23.9h4.8V37c0,3.1,1.8,5.2,5.2,5.2s5.2-2.1,5.2-5.2V23.9h4.8v13.2c0,5.5-3.2,9.2-10,9.2
					S605.4,42.6,605.4,37.1z"/>
				<path class="st1" d="M629.7,46V23.9H640c4.8,0,7.4,3.2,7.4,7.1c0,3.8-2.6,7.1-7.4,7.1h-5.6V46H629.7z M642.6,31
					c0-1.9-1.4-3-3.3-3h-5v5.9h5C641.2,33.9,642.6,32.8,642.6,31z"/>
			</g>
			<g>
				<g>
					<path class="st1" d="M425.7,66.2c0-6.7,4.9-11.4,11.6-11.4s11.5,4.8,11.5,11.4c0,6.7-4.9,11.4-11.5,11.4
						C430.5,77.6,425.7,72.8,425.7,66.2z M443.9,66.2c0-4.1-2.6-7.3-6.7-7.3s-6.7,3.1-6.7,7.3c0,4.1,2.6,7.3,6.7,7.3
						C441.3,73.4,443.9,70.3,443.9,66.2z"/>
					<path class="st1" d="M452.1,77.2V55.1h15.6v4.1h-10.9v4.6h10.7V68h-10.7v9.2H452.1z"/>
					<path class="st1" d="M484.6,77.2v-18h-6.5v-4.1h17.6v4.1h-6.4v18H484.6z"/>
					<path class="st1" d="M498.8,77.2V55.1h15.6v4.1h-10.9v4.6h10.7V68h-10.7v5h10.9v4.1L498.8,77.2L498.8,77.2z"/>
					<path class="st1" d="M533.3,77.2l-10.5-14.4v14.4h-4.7V55.1h4.8L533.1,69V55.1h4.7v22.1H533.3z"/>
					<path class="st1" d="M557.5,77.2L547,62.8v14.4h-4.7V55.1h4.8L557.3,69V55.1h4.7v22.1H557.5z"/>
					<path class="st1" d="M566.4,77.2V55.1h4.7v22.1H566.4z"/>
					<path class="st1" d="M573.9,74.1l2.6-3.7c1.6,1.6,4,3,7,3c2.6,0,3.8-1.2,3.8-2.4c0-3.8-12.7-1.2-12.7-9.5
						c0-3.7,3.2-6.7,8.4-6.7c3.5,0,6.4,1.1,8.6,3.1l-2.6,3.5c-1.8-1.7-4.2-2.4-6.4-2.4c-2,0-3.1,0.9-3.1,2.2
						c0,3.5,12.7,1.1,12.7,9.4c0,4-2.9,7.1-8.8,7.1C579,77.6,576,76.2,573.9,74.1z"/>
				</g>
				<path class="st1" d="M601.1,64.4c-2.7,0-4.9-2.2-4.9-4.9s2.2-4.9,4.9-4.9s4.9,2.2,4.9,4.9S603.8,64.4,601.1,64.4z M601.1,55.2
					c-2.3,0-4.2,1.8-4.2,4.2c0,2.3,1.9,4.2,4.2,4.2s4.2-1.9,4.2-4.2C605.3,57.1,603.4,55.2,601.1,55.2z M602.4,62.3L601,60h-1v2.2
					h-0.8v-5.7h2.3c1,0,1.8,0.7,1.8,1.7c0,1.3-1.1,1.7-1.4,1.7l1.5,2.3L602.4,62.3L602.4,62.3z M601.5,57.3H600v2h1.5
					c0.5,0,1-0.4,1-1S602,57.3,601.5,57.3z"/>
			</g>
		</g>
	</g>
</g>
<g>
	<g>
		<path class="st2" d="M322.6,21.1c-2.3-1.4-5.8-2.1-10.8-2.1h-11.7c1.9,0.7,2.4,1.7,2.4,4.6v23.5h5.7V35c3.4,0.4,9.6,0.1,12-0.7
			c4.7-1.6,6.1-4.6,6.1-7.1C326.1,24.8,325,22.6,322.6,21.1 M312.4,32.6c-1,0-3.7,0-4.3-0.1v-11c1.5-0.2,5-0.1,6.5,0.2
			c3.3,0.6,5.3,2.5,5.3,5.5C319.9,29.2,318.9,32.6,312.4,32.6"/>
		<path class="st2" d="M330.6,19.4c1.3,0,2.3,1,2.3,2.4c0,1.3-1,2.3-2.3,2.3s-2.3-1-2.3-2.3C328.4,20.4,329.3,19.4,330.6,19.4
			 M330.6,19c-1.5,0-2.7,1.2-2.7,2.7s1.2,2.7,2.7,2.7s2.7-1.2,2.7-2.7C333.3,20.2,332.2,19,330.6,19 M330.1,21.9h0.6l0.9,1.4h0.5
			l-0.9-1.4c0.4-0.1,0.8-0.3,0.8-0.9s-0.3-0.9-1-0.9h-1.2v3.2h0.4L330.1,21.9L330.1,21.9z M330.1,21.6v-1.1h0.7
			c0.4,0,0.7,0.1,0.7,0.5c0,0.5-0.5,0.6-0.9,0.6H330.1z"/>
		<path class="st2" d="M261.1,43.2V40c-2.7,3-7.4,4.7-11.7,4.7c-7.5,0-12.8-4.5-12.8-12.1s5.2-11.9,12.8-11.9c4.8,0,8.1,1.7,11,5.1
			l-0.5-6.1c-3.5-0.8-6.5-1.4-10.6-1.4c-5.8,0-11.3,1.6-14.9,5c-2.8,2.6-4.5,6.2-4.5,9.5s1.7,6.9,4.5,9.5c3.5,3.3,8.7,5.1,13.7,5
			C253.2,47.3,257.9,45.8,261.1,43.2"/>
		<path class="st2" d="M175.5,18.8c1.8,0.7,2.4,1.7,2.4,4.5v23.8h5.6V18.8H175.5z"/>
		<path class="st2" d="M197.7,27c-1.9-1.9-1.5-6.4,4.8-6.4c5.5,0,8.4,3.1,8.4,3.1l-0.4-4.6c0,0-3.7-1-8-1c-7.1,0-10.3,3.9-10.3,7.5
			c0,8.1,10.8,8.4,14.5,12.2c2,2,1.9,6.8-4.9,6.8c-6.5,0-10.5-4.4-10.5-4.4l0.4,4.9c0,0,5,2,10.1,2c6.8,0,11-3.4,11-8.4
			C212.6,31.6,201.6,30.9,197.7,27"/>
		<path class="st2" d="M151.1,22l8.1,16.4l8.8-19.6h3.3L157.9,48c0,0-11.5-22.3-12.8-24.7c-1.5-2.9-2.5-3.8-4.7-4.5h9.2
			C150,19.7,150.5,20.8,151.1,22"/>
		<path class="st2" d="M109,25.1c-3.5-3.6-9.8-6.1-19.4-6.1H78.7c1.8,0.7,2.4,1.7,2.4,4.6v23.5h9.5c8.6,0,14.5-2.1,18.2-5.7
			c2.3-2.2,3.6-5.2,3.6-8.4C112.3,30.2,111.2,27.4,109,25.1 M99.4,43.3c-2.5,1.2-9,1.4-12.7,1.2V21.6c4.5-0.4,9.5,0.3,12,1.6
			c2.5,1.3,6.8,4.4,6.8,10.6C105.5,38.1,103.3,41.5,99.4,43.3"/>
		<path class="st2" d="M294.1,35.2c0,4.3-0.8,6.6-2.6,8.6c-2.4,2.7-6.2,3.9-9.8,4c-2.2,0-4.5-0.4-6.4-1.2c-4.6-1.8-6.9-5.3-6.9-11.1
			v-12c0-2.9-0.5-3.8-2.4-4.6h8v16.4c0,3.9,0.6,5.5,1.9,6.9c1.5,1.7,3.9,2.4,6.4,2.4s5.1-0.7,6.8-2.5c1.3-1.4,2-3.1,2-7.1V19h3V35.2
			z"/>
		<path class="st2" d="M138,47.1h6.6c-4.6-9.3-14-28.1-14-28.1h-7c0.6,0.2,1,0.8,1.2,1.3c0.3,1.1,0,2.8-0.9,4.7l-9.8,22.1h3.3l3.5-8
			H134L138,47.1z M127.1,24.7l5.6,11.8H122L127.1,24.7z"/>
	</g>
	<g>
		<polygon class="st3" points="239.1,88.7 173.5,88.7 178.7,94 		"/>
		<path class="st3" d="M179.6,67.6v0.8c-1.2-0.8-2.3-1.2-3.8-1.2c-4.6,0-8.1,4.2-8.1,9.3c0,5.1,3.5,9.3,8.1,9.3
			c1.5,0,2.6-0.4,3.8-1.2v0.8h4V67.6H179.6z M175.8,81.6c-2.3,0-3.9-2.2-3.9-5s1.7-5,3.9-5c2.3,0,3.9,2.2,3.9,5
			C179.6,79.3,178,81.6,175.8,81.6"/>
		<path class="st3" d="M211.9,67.6V78c0,2-1.3,3.6-3.3,3.6s-3.3-1.7-3.3-3.6V67.6h-4V78c0,4.3,2.9,7.8,7.2,7.8c2,0,3.4-1.1,3.4-1.1
			v0.7h4V67.6H211.9z"/>
		<path class="st3" d="M249.5,85.4V75c0-2,1.3-3.6,3.3-3.6s3.3,1.7,3.3,3.6v10.4h4V75c0-4.3-2.9-7.8-7.2-7.8c-2,0-3.4,1.1-3.4,1.1
			v-0.7h-4v17.8C245.5,85.4,249.5,85.4,249.5,85.4z"/>
		<path class="st3" d="M156.1,85.4v-6.9h3l5.2,6.9h5.3l-6.2-8.3c1.9-1.4,3.2-3.7,3.2-6.2c0-4.2-3.4-7.7-7.7-7.7h-7v22.2H156.1z
			 M156.1,67.4h2.8c1.9,0,3.4,1.5,3.4,3.4s-1.6,3.4-3.4,3.4h-2.8V67.4z"/>
		<path class="st3" d="M226.8,81.2c-0.4,0.2-0.8,0.4-1.4,0.4c-0.7,0-1.9-0.5-1.9-2.2v-7.6h3.5v-4.2h-3.5v-4.4h-4v4.4h-2.1v4.2h2.1
			v7.7c0,4,3,6.3,6,6.3c1.1,0,2.7-0.4,3.9-1.1L226.8,81.2z"/>
		<polygon class="st3" points="193.6,76 200.6,67.6 194.9,67.6 190.1,73.8 190.1,61.7 185.9,61.7 185.9,85.4 190.1,85.4 190.1,78.1 
			196,85.4 201.7,85.4 		"/>
		<path class="st3" d="M236.2,67.2c-4.7,0-8,4.1-8,9.3c0,5.5,4.2,9.3,8.4,9.3c2.1,0,4.9-0.7,7.1-4l-3.6-2.1c-2.8,4.1-7.4,2-7.9-2.1
			h11.6C244.9,71.4,240.7,67.2,236.2,67.2 M239.7,74.2h-7.3C233.3,70.1,238.9,69.8,239.7,74.2"/>
		<path class="st3" d="M129.7,76.8c0.7-1,1.6-1.4,2.8-1.4c2.6,0,4.3,2.1,4.3,5.1c0,3.1-1.8,5.1-4.3,5.1c-1.1,0-2-0.4-2.7-1.3
			l-0.2,1.1h-1.2v-13h1.4v4.4H129.7z M129.7,80.5c0,2.2,1.2,3.8,2.8,3.8s2.9-1.6,2.9-3.8c0-2.2-1.2-3.8-2.9-3.8
			C130.9,76.7,129.7,78.3,129.7,80.5"/>
		<path class="st3" d="M145.2,75.6l-3.5,10.6c-0.4,1.1-1.2,1.8-2.3,1.8c-0.7,0-1.3-0.2-1.7-0.7l0.7-1c0.3,0.3,0.6,0.4,1,0.4
			c0.5,0,0.8-0.2,1.1-1l0.2-0.6l-3.4-9.5h1.4l2.6,7.6l2.5-7.6C143.8,75.6,145.2,75.6,145.2,75.6z"/>
	</g>
	<path class="st0" d="M43,33.1c0-6.2-14.8-11.8-28.6-13.6c-2.5,4-3.9,8.7-3.9,13.6c0,5,1.4,9.7,3.9,13.7C28.2,44.8,43,39.2,43,33.1"
		/>
	<path class="st0" d="M37.7,6.6c-9.4,0-17.7,4.6-22.6,11.7c22.1,1.1,43,5.5,42.7,14.8c0.3,9.2-20.9,13.8-42.7,14.8
		C20,55,28.3,59.6,37.7,59.6c15,0,27.2-11.9,27.2-26.5C64.9,18.4,52.7,6.6,37.7,6.6"/>
</g>
<path class="st4" d="M713.6,85.7l-5.9,5.7c-5.3-6.3-10.2-13-14.8-19.8l0,0c-0.2-0.2-2-2.5-4.3-6.3c-1.2-2-2.5-4.3-3.9-6.9
	c-2.8-5.3-4.9-11-6.4-16.8c-2.5-11.1,0.6-20.3,5.5-25.5c0,0-4.2,13.2-1.7,21.6c1.5,4.7,3.4,9.3,5.8,13.6c1.1,2.1,2.3,4,3.4,5.7
	c2.4,3.6,4.5,6.5,5.6,7.9l0,0C702.5,72.4,708.1,79.5,713.6,85.7z"/>
<path class="st4" d="M702,16c4.9,5.2,8.1,14.5,5.5,25.5c-1.5,5.8-3.6,11.5-6.4,16.8c-1.4-1.8-2.8-3.6-4.1-5.4
	c3.8-6.3,6.5-13.3,8.1-20.5C706.1,26.7,705,20.9,702,16z"/>
<path class="st5" d="M702,16c3.1,4.9,4.2,10.7,3,16.4c-1.5,7.2-4.2,14.2-8.1,20.5l-2-2.8c-0.7-0.9-1.3-1.9-2-2.9
	c4.8-8.1,9.1-16,9.6-24c0.1-1.2,0.1-2.4,0-3.6C702.5,18.4,702.3,17.2,702,16z"/>
<path class="st4" d="M702.6,19.7c0.1,1.2,0.1,2.4,0,3.6l0,0c-5.8-4.2-13.6-4.2-19.3,0c-0.1-1.2-0.1-2.4,0-3.6l0,0
	c2.1-1.7,4.5-2.9,7.1-3.6l0,0h0.6l0.4-0.2h0.6h2.1C697.2,16.4,700.1,17.7,702.6,19.7z"/>
<path class="st4" d="M692.9,71.6L692.9,71.6c-4.6,6.8-9.5,13.5-14.8,19.8l-5.9-5.7c5.6-6.2,11-13,16.4-20.4
	C691,69,692.7,71.4,692.9,71.6L692.9,71.6L692.9,71.6z"/>
<path class="st5" d="M684.8,58.4c1.3,2.5,2.5,4.9,3.9,6.9c-5.5,7.4-10.9,14.3-16.4,20.4l-5.9-5.7C672.8,73,679,65.8,684.8,58.4z"/>
<path class="st5" d="M683.3,19.8c-0.1,1.2-0.1,2.4,0,3.6c0.5,6.9,3.8,13.9,7.8,20.9c0.6,1,1.2,2.1,1.9,3.1c0.6,1,1.3,1.9,2,2.9
	l2,2.8c1.3,1.8,2.7,3.6,4.1,5.4l0,0C706.8,65.8,713,73,719.5,80l-5.9,5.7c-5.6-6.2-11.2-13.3-16.6-20.7l0,0
	c-1.2-1.5-3.2-4.3-5.6-7.9c-1.2-1.8-2.3-3.7-3.4-5.7c-2.4-4.3-4.3-8.9-5.8-13.6c-2.4-7.2-1.8-15,1.6-21.7v0.4
	c-0.3,1.1-0.4,2.2-0.5,3.3L683.3,19.8z"/>
<path class="st5" d="M702,16c0.4,1.2,0.6,2.4,0.6,3.6c-2.4-2-5.4-3.3-8.5-3.6H692h-0.6H691h-0.6l0,0c-2.6,0.6-5,1.9-7.1,3.6
	c0.1-1.1,0.2-2.2,0.5-3.3l-0.1-0.3c1.8-1.9,4-3.4,6.5-4.2l0,0l0.6-0.1h0.4h0.6h2.1C697,12.2,699.9,13.7,702,16z"/>
</svg>
